<svg xmlns="http://www.w3.org/2000/svg" viewBox="0 0 750 720">
  <defs>
    <linearGradient id="adminBg" x1="0%" y1="0%" x2="100%" y2="100%">
      <stop offset="0%" style="stop-color:#fafafa"/>
      <stop offset="100%" style="stop-color:#f4f4f5"/>
    </linearGradient>
    <linearGradient id="adminHeader" x1="0%" y1="0%" x2="100%" y2="0%">
      <stop offset="0%" style="stop-color:#18181b"/>
      <stop offset="100%" style="stop-color:#27272a"/>
    </linearGradient>
    <filter id="adminShadow" x="-5%" y="-5%" width="110%" height="115%">
      <feDropShadow dx="0" dy="2" stdDeviation="4" flood-opacity="0.08"/>
    </filter>
  </defs>
  
  <!-- Background -->
  <rect x="0" y="0" width="750" height="720" fill="url(#adminBg)"/>
  
  <!-- Header -->
  <rect x="0" y="0" width="750" height="60" fill="url(#adminHeader)"/>
  <text x="30" y="38" font-family="Arial, sans-serif" font-size="16" font-weight="bold" fill="white">
    тЪЩя╕П чобчРЖхРОхП░
  </text>
  <text x="150" y="38" font-family="Arial, sans-serif" font-size="12" fill="#a1a1aa">
    AI Intent Center Admin
  </text>
  
  <!-- Logout -->
  <rect x="660" y="18" width="70" height="28" rx="4" fill="#27272a" stroke="#3f3f46" stroke-width="1"/>
  <text x="695" y="37" text-anchor="middle" font-family="Arial, sans-serif" font-size="11" fill="#a1a1aa">чЩ╗хЗ║</text>
  
  <!-- Sidebar -->
  <rect x="0" y="60" width="160" height="660" fill="#fafafa" stroke="#e4e4e7" stroke-width="1"/>
  
  <!-- Sidebar Items -->
  <rect x="10" y="80" width="140" height="36" rx="6" fill="#3b82f6"/>
  <text x="25" y="103" font-family="Arial, sans-serif" font-size="12" fill="white">ЁЯУК ч│╗ч╗ЯщЕНч╜о</text>
  
  <rect x="10" y="126" width="140" height="36" rx="6" fill="transparent"/>
  <text x="25" y="149" font-family="Arial, sans-serif" font-size="12" fill="#71717a">ЁЯСе чФицИ╖чобчРЖ</text>
  
  <rect x="10" y="172" width="140" height="36" rx="6" fill="transparent"/>
  <text x="25" y="195" font-family="Arial, sans-serif" font-size="12" fill="#71717a">ЁЯУИ ч╗ЯшобцХ░цНо</text>
  
  <!-- Main Content -->
  <rect x="180" y="80" width="550" height="620" rx="12" fill="white" filter="url(#adminShadow)"/>
  
  <!-- Content Header -->
  <text x="210" y="115" font-family="Arial, sans-serif" font-size="18" font-weight="bold" fill="#18181b">ч│╗ч╗ЯщЕНч╜о</text>
  <text x="210" y="135" font-family="Arial, sans-serif" font-size="12" fill="#71717a">щЕНч╜ощгЮф╣жх║ФчФихЗншпБхТМч│╗ч╗Яшо╛ч╜о</text>
  
  <!-- Feishu Config Section -->
  <rect x="200" y="155" width="510" height="220" rx="8" fill="#fafafa" stroke="#e4e4e7" stroke-width="1"/>
  <text x="220" y="180" font-family="Arial, sans-serif" font-size="14" font-weight="bold" fill="#18181b">ЁЯФР щгЮф╣жх║ФчФищЕНч╜о</text>
  
  <!-- App ID -->
  <text x="220" y="210" font-family="Arial, sans-serif" font-size="11" fill="#52525b">App ID</text>
  <rect x="220" y="218" width="470" height="36" rx="6" fill="white" stroke="#d4d4d8" stroke-width="1"/>
  <text x="235" y="241" font-family="monospace" font-size="12" fill="#3f3f46">cli_a1b2c3d4e5f6g7h8</text>
  
  <!-- App Secret -->
  <text x="220" y="275" font-family="Arial, sans-serif" font-size="11" fill="#52525b">App Secret</text>
  <rect x="220" y="283" width="470" height="36" rx="6" fill="white" stroke="#d4d4d8" stroke-width="1"/>
  <text x="235" y="306" font-family="monospace" font-size="12" fill="#a1a1aa">тАвтАвтАвтАвтАвтАвтАвтАвтАвтАвтАвтАвтАвтАвтАвтАвтАвтАвтАвтАвтАвтАвтАвтАв</text>
  <rect x="640" y="291" width="40" height="20" rx="4" fill="#f4f4f5"/>
  <text x="660" y="305" text-anchor="middle" font-family="Arial, sans-serif" font-size="9" fill="#71717a">цШ╛чд║</text>
  
  <!-- OAuth Redirect URI -->
  <text x="220" y="340" font-family="Arial, sans-serif" font-size="11" fill="#52525b">OAuth хЫЮш░ГхЬ░хЭА</text>
  <rect x="220" y="348" width="470" height="36" rx="6" fill="#f4f4f5" stroke="#d4d4d8" stroke-width="1"/>
  <text x="235" y="371" font-family="monospace" font-size="10" fill="#71717a">https://your-domain.com/auth/feishu/callback</text>
  
  <!-- Admin Password Section -->
  <rect x="200" y="390" width="510" height="100" rx="8" fill="#fafafa" stroke="#e4e4e7" stroke-width="1"/>
  <text x="220" y="415" font-family="Arial, sans-serif" font-size="14" font-weight="bold" fill="#18181b">ЁЯФТ чобчРЖхСШш┤жцИ╖</text>
  
  <text x="220" y="445" font-family="Arial, sans-serif" font-size="11" fill="#52525b">чФицИ╖хРН</text>
  <rect x="220" y="453" width="150" height="36" rx="6" fill="white" stroke="#d4d4d8" stroke-width="1"/>
  <text x="235" y="476" font-family="Arial, sans-serif" font-size="12" fill="#3f3f46">admin</text>
  
  <text x="390" y="445" font-family="Arial, sans-serif" font-size="11" fill="#52525b">цЦ░хпЖчаБ (чХЩчй║ф╕Нф┐оцФ╣)</text>
  <rect x="390" y="453" width="150" height="36" rx="6" fill="white" stroke="#d4d4d8" stroke-width="1"/>
  <text x="405" y="476" font-family="Arial, sans-serif" font-size="12" fill="#a1a1aa">тАвтАвтАвтАвтАвтАвтАвтАв</text>
  
  <text x="560" y="445" font-family="Arial, sans-serif" font-size="11" fill="#52525b">чбошодхпЖчаБ</text>
  <rect x="560" y="453" width="130" height="36" rx="6" fill="white" stroke="#d4d4d8" stroke-width="1"/>
  <text x="575" y="476" font-family="Arial, sans-serif" font-size="12" fill="#a1a1aa">тАвтАвтАвтАвтАвтАвтАвтАв</text>
  
  <!-- WebSocket Status Section -->
  <rect x="200" y="505" width="510" height="80" rx="8" fill="#fafafa" stroke="#e4e4e7" stroke-width="1"/>
  <text x="220" y="530" font-family="Arial, sans-serif" font-size="14" font-weight="bold" fill="#18181b">ЁЯФМ WebSocket чЫСхРмхЩичК╢цАБ</text>
  
  <rect x="220" y="545" width="470" height="30" rx="4" fill="#dcfce7" stroke="#bbf7d0" stroke-width="1"/>
  <circle cx="235" cy="560" r="5" fill="#22c55e"/>
  <text x="250" y="565" font-family="Arial, sans-serif" font-size="11" fill="#166534">ш┐РшбМф╕н | PID: 12637 | ш┐ЮцОецнгх╕╕</text>
  <rect x="580" y="548" width="100" height="24" rx="4" fill="#f0fdf4" stroke="#86efac" stroke-width="1"/>
  <text x="630" y="564" text-anchor="middle" font-family="Arial, sans-serif" font-size="10" fill="#166534">ЁЯФД щЗНхРп</text>
  
  <!-- System Status Section -->
  <rect x="200" y="600" width="510" height="50" rx="8" fill="#dcfce7" stroke="#bbf7d0" stroke-width="1"/>
  <circle cx="225" cy="625" r="6" fill="#22c55e"/>
  <text x="245" y="630" font-family="Arial, sans-serif" font-size="12" fill="#166534">ч│╗ч╗ЯчК╢цАБцнгх╕╕</text>
  <text x="400" y="630" font-family="Arial, sans-serif" font-size="11" fill="#166534">чФицИ╖цХ░: 12 | ф╗КцЧешп╖ц▒В: 156 | х╛ЕхдДчРЖ: 3</text>
  
  <!-- Action Buttons -->
  <rect x="200" y="665" width="100" height="40" rx="8" fill="#3b82f6"/>
  <text x="250" y="690" text-anchor="middle" font-family="Arial, sans-serif" font-size="13" font-weight="bold" fill="white">ф┐ЭхнШщЕНч╜о</text>
  
  <rect x="320" y="665" width="100" height="40" rx="8" fill="white" stroke="#d4d4d8" stroke-width="1"/>
  <text x="370" y="690" text-anchor="middle" font-family="Arial, sans-serif" font-size="13" fill="#52525b">ц╡ЛшпХш┐ЮцОе</text>
  
  <rect x="440" y="665" width="100" height="40" rx="8" fill="white" stroke="#fca5a5" stroke-width="1"/>
  <text x="490" y="690" text-anchor="middle" font-family="Arial, sans-serif" font-size="13" fill="#dc2626">щЗНч╜ощЕНч╜о</text>
</svg>
